HIERARCHY
ROOT Hips
{
 OFFSET 0.000000 0.000000 0.000000
 CHANNELS 6 Xposition Yposition Zposition Yrotation Xrotation Zrotation
 JOINT Chest
 {
  OFFSET 0.000000 9.585900 0.002600
  CHANNELS 3 Yrotation Xrotation Zrotation
  JOINT Chest2
  {
   OFFSET 0.000000 9.601200 -0.005300
   CHANNELS 3 Yrotation Xrotation Zrotation
   JOINT Chest3
   {
    OFFSET 0.000000 9.561800 0.000000
    CHANNELS 3 Yrotation Xrotation Zrotation
    JOINT Chest4
    {
     OFFSET 0.000000 9.552100 0.000000
     CHANNELS 3 Yrotation Xrotation Zrotation
     JOINT Neck
     {
      OFFSET 0.000000 14.453000 0.000000
      CHANNELS 3 Yrotation Xrotation Zrotation
      JOINT Head
      {
       OFFSET 0.000000 8.936500 -0.011300
       CHANNELS 3 Yrotation Xrotation Zrotation
       End Site
       {
        OFFSET 0.000000 17.073600 -0.006000
       }
      }
     }
     JOINT RightCollar
     {
      OFFSET -2.921100 9.558500 0.000000
      CHANNELS 3 Yrotation Xrotation Zrotation
      JOINT RightShoulder
      {
       OFFSET -13.519700 0.000000 0.000000
       CHANNELS 3 Yrotation Xrotation Zrotation
       JOINT RightElbow
       {
        OFFSET 0.000000 -29.696600 0.000000
        CHANNELS 3 Yrotation Xrotation Zrotation
        JOINT RightWrist
        {
         OFFSET 0.000000 -24.004700 0.000000
         CHANNELS 3 Yrotation Xrotation Zrotation
         End Site
         {
          OFFSET 0.000000 -17.728500 0.000000
         }
        }
       }
      }
     }
     JOINT LeftCollar
     {
      OFFSET 2.921100 9.558500 0.000000
      CHANNELS 3 Yrotation Xrotation Zrotation
      JOINT LeftShoulder
      {
       OFFSET 13.519700 0.000000 0.000000
       CHANNELS 3 Yrotation Xrotation Zrotation
       JOINT LeftElbow
       {
        OFFSET 0.000000 -29.696600 0.000000
        CHANNELS 3 Yrotation Xrotation Zrotation
        JOINT LeftWrist
        {
         OFFSET 0.000000 -24.004700 0.000000
         CHANNELS 3 Yrotation Xrotation Zrotation
         End Site
         {
          OFFSET 0.000000 -17.728500 0.000000
         }
        }
       }
      }
     }
    }
   }
  }
 }
 JOINT RightHip
 {
  OFFSET -7.771700 -0.012900 -0.001300
  CHANNELS 3 Yrotation Xrotation Zrotation
  JOINT RightKnee
  {
   OFFSET 0.000000 -40.869800 0.001200
   CHANNELS 3 Yrotation Xrotation Zrotation
   JOINT RightAnkle
   {
    OFFSET 0.000000 -39.717900 0.002100
    CHANNELS 3 Yrotation Xrotation Zrotation
    JOINT RightToe
    {
     OFFSET 0.000000 -4.965400 11.033500
     CHANNELS 3 Yrotation Xrotation Zrotation
     End Site
     {
      OFFSET 0.000000 -1.423100 5.872300
     }
    }
   }
  }
 }
 JOINT LeftHip
 {
  OFFSET 7.771700 -0.012900 -0.001300
  CHANNELS 3 Yrotation Xrotation Zrotation
  JOINT LeftKnee
  {
   OFFSET 0.000000 -40.869800 0.001200
   CHANNELS 3 Yrotation Xrotation Zrotation
   JOINT LeftAnkle
   {
    OFFSET 0.000000 -39.717900 0.002100
    CHANNELS 3 Yrotation Xrotation Zrotation
    JOINT LeftToe
    {
     OFFSET 0.000000 -4.965400 11.033500
     CHANNELS 3 Yrotation Xrotation Zrotation
     End Site
     {
      OFFSET 0.000000 -1.423100 5.872300
     }
    }
   }
  }
 }
}
MOTION
Frames: 9
Frame Time: 0.008333
-45.696412 46.544219 11.116871 176.850467 -29.860518 -2.311440 -0.301749 17.774878 1.116228 -0.051468 1.942007 0.154699 -0.114183 3.231147 0.257016 -0.353051 15.542725 1.204300 -1.080602 18.447546 -1.005724 -1.637865 -1.547020 -1.509770 -0.682709 1.638966 -2.247937 5.309365 -6.519893 -15.527218 -50.399449 -61.559505 98.750038 -0.640256 6.539388 -19.723747 -0.001290 -0.336115 1.315826 -2.234239 -2.920961 15.498679 75.625017 -71.737366 -114.492378 -3.126493 13.422870 8.883823 -5.156198 -57.598689 -7.609576 -171.321305 81.424529 -161.997632 -7.826447 -12.009961 -7.355280 -0.004174 -0.239568 -0.007630 2.925189 -58.920794 8.855612 -108.915898 81.642133 -113.457645 4.010465 -6.679424 6.531183 0.184218 0.364143 0.096724
-45.696645 46.543751 11.118315 176.859378 -29.864722 -2.313383 -0.296971 17.776579 1.117405 -0.054055 1.942732 0.154594 -0.111167 3.229791 0.256864 -0.353561 15.542296 1.207128 -1.083380 18.446249 -1.006426 -1.644096 -1.548396 -1.503674 -0.682844 1.640945 -2.249131 5.337561 -6.529963 -15.522038 -50.415725 -61.543719 98.773966 -0.647086 6.552371 -19.778032 -0.008084 -0.328605 1.317064 -2.229584 -2.929694 15.486351 75.609291 -71.742365 -114.469561 -3.125009 13.421610 8.888061 -5.176032 -57.593768 -7.606318 -171.321801 81.427177 -161.998872 -7.832678 -12.013385 -7.371021 0.000039 -0.234295 0.001633 2.935385 -58.917560 8.842387 -108.913160 81.646475 -113.452536 4.023763 -6.678006 6.533362 0.181504 0.364200 0.094634
-45.698238 46.542391 11.120652 176.870414 -29.860431 -2.309285 -0.300271 17.771408 1.109407 -0.056469 1.942402 0.155411 -0.100349 3.226120 0.257244 -0.360627 15.541717 1.210875 -1.086940 18.448207 -1.006796 -1.654262 -1.562791 -1.498507 -0.681130 1.644167 -2.252176 5.346421 -6.532354 -15.516548 -50.419169 -61.540035 98.766614 -0.658197 6.556222 -19.797102 -0.008475 -0.321721 1.315992 -2.228877 -2.935120 15.473573 75.588056 -71.747877 -114.439771 -3.120858 13.418345 8.892700 -5.193122 -57.600895 -7.614820 -171.343631 81.427594 -162.027458 -7.825898 -12.011912 -7.378544 -0.001536 -0.234540 0.002153 2.953671 -58.921783 8.815516 -108.887093 81.655268 -113.425978 4.030523 -6.670985 6.539949 0.180480 0.364056 0.089604
-45.698559 46.541282 11.122261 176.874794 -29.860489 -2.310420 -0.295592 17.770082 1.110898 -0.062723 1.943223 0.155562 -0.095953 3.221903 0.257462 -0.359169 15.538334 1.213626 -1.088263 18.448702 -1.006572 -1.660978 -1.564992 -1.496509 -0.683476 1.650663 -2.254408 5.358744 -6.537037 -15.507584 -50.412696 -61.538932 98.752309 -0.673354 6.559990 -19.811593 -0.003162 -0.314604 1.313091 -2.237089 -2.936014 15.469203 75.576242 -71.750330 -114.422810 -3.118152 13.416058 8.894728 -5.198297 -57.601175 -7.616918 -171.317826 81.427094 -162.003265 -7.813990 -12.012117 -7.388128 0.000187 -0.231650 0.007653 2.959473 -58.922979 8.806764 -108.886394 81.657680 -113.421640 4.039309 -6.669375 6.540562 0.175502 0.364559 0.087074
-45.698827 46.539973 11.123792 176.875395 -29.859879 -2.311440 -0.292141 17.768096 1.112317 -0.062518 1.942201 0.155915 -0.093059 3.217268 0.256817 -0.359798 15.538080 1.215892 -1.089256 18.445797 -1.004134 -1.665024 -1.558482 -1.497115 -0.684007 1.655545 -2.256492 5.369643 -6.543151 -15.495759 -50.390929 -61.533576 98.749701 -0.688721 6.558624 -19.847825 -0.003847 -0.308636 1.312268 -2.236677 -2.935608 15.464694 75.562889 -71.752139 -114.404511 -3.114726 13.413577 8.897535 -5.210015 -57.603992 -7.606386 -171.264381 81.425745 -161.957512 -7.805574 -12.011581 -7.393079 -0.002062 -0.229872 0.007728 2.966401 -58.926215 8.800616 -108.891538 81.660399 -113.423728 4.052780 -6.664224 6.538711 0.165355 0.361157 0.087460
-45.699771 46.538456 11.125313 176.887907 -29.857441 -2.316028 -0.294413 17.760856 1.113148 -0.062517 1.941272 0.155983 -0.095855 3.214633 0.254998 -0.363031 15.544057 1.218603 -1.088284 18.424118 -1.002670 -1.670993 -1.549051 -1.494417 -0.674779 1.657878 -2.258259 5.370655 -6.549017 -15.488035 -50.386585 -61.532345 98.748027 -0.690705 6.560637 -19.853906 -0.002803 -0.307227 1.311572 -2.224927 -2.933431 15.456895 75.561155 -71.741121 -114.398775 -3.095964 13.407518 8.939760 -5.198210 -57.608102 -7.625597 -171.247163 81.422216 -161.931513 -7.809637 -12.005901 -7.395260 0.009396 -0.235334 0.009582 2.967278 -58.932688 8.792181 -108.902461 81.664696 -113.431545 4.047580 -6.654879 6.540604 0.142967 0.361223 0.082849
-45.701733 46.536615 11.127033 176.892561 -29.852506 -2.312542 -0.291698 17.745130 1.103515 -0.061432 1.937936 0.156313 -0.101110 3.221963 0.259256 -0.360356 15.537160 1.221508 -1.094565 18.429101 -1.001264 -1.686177 -1.552187 -1.487229 -0.672006 1.661364 -2.260056 5.366224 -6.540705 -15.483153 -50.392581 -61.531882 98.760181 -0.689511 6.563666 -19.864200 -0.011175 -0.292825 1.310900 -2.197332 -2.928125 15.444754 75.567184 -71.749889 -114.422859 -3.087117 13.399825 8.964164 -5.165353 -57.614407 -7.658010 -171.245888 81.419699 -161.920710 -7.800973 -12.006020 -7.399533 0.003557 -0.232660 0.015116 2.985281 -58.939196 8.774996 -108.879753 81.663805 -113.404801 4.023339 -6.646514 6.549666 0.155111 0.362188 0.076860
-45.703072 46.535331 11.127714 176.897659 -29.854308 -2.314681 -0.294912 17.745375 1.102799 -0.060667 1.936250 0.156086 -0.101730 3.223106 0.259650 -0.355228 15.527631 1.221675 -1.100238 18.438096 -0.999022 -1.712743 -1.556750 -1.471805 -0.675806 1.671500 -2.258329 5.380594 -6.547278 -15.476855 -50.383428 -61.530301 98.736406 -0.685427 6.549367 -19.866307 -0.016757 -0.282823 1.315140 -2.194279 -2.925450 15.439923 75.606884 -71.736439 -114.439608 -3.090765 13.405562 8.971927 -5.155837 -57.613459 -7.665445 -171.217473 81.419041 -161.892820 -7.801011 -12.004569 -7.393690 0.002453 -0.232494 0.013062 2.983027 -58.938227 8.773866 -108.871995 81.664416 -113.397868 4.022719 -6.643851 6.550258 0.153185 0.363161 0.076600
-45.703764 46.534354 11.127822 176.899354 -29.859873 -2.320995 -0.291522 17.745369 1.107942 -0.062013 1.938894 0.156902 -0.100277 3.219807 0.259294 -0.347633 15.516017 1.225158 -1.113710 18.450720 -0.997412 -1.723857 -1.543897 -1.466922 -0.682043 1.689135 -2.257638 5.388623 -6.557618 -15.473585 -50.375520 -61.527996 98.723050 -0.685243 6.538908 -19.868603 -0.004471 -0.280814 1.308400 -2.214190 -2.909281 15.444428 75.633270 -71.730113 -114.455812 -3.093934 13.411361 8.981933 -5.151250 -57.607409 -7.661502 -171.211992 81.419994 -161.888485 -7.804464 -12.002379 -7.387351 0.001247 -0.232689 0.009721 2.978964 -58.934717 8.782397 -108.875596 81.661564 -113.398581 4.017635 -6.644202 6.549239 0.157313 0.364481 0.078508
